<svg version="1.1" id="Calque_1" xmlns="http://www.w3.org/2000/svg" xmlns:xlink="http://www.w3.org/1999/xlink" x="0px" y="0px" viewBox="0 0 635.9 223.85" xml:space="preserve"><g><path d="M297.33,145.59L189.13,3.41H145.1h-3.72v124.33c0,34.42-17.67,52.09-46.81,52.09c-29.15,0-46.82-18.29-46.82-53.64V3.41H0
							v124.02c0,63.87,35.65,96.42,93.94,96.42c58.29,0,95.18-32.24,95.18-97.97V78.4l28.99,38.06l79.21,103.98h40.62h123.09v-42.48
							H344.76v-45.57h102.31V89.91H344.76V45.89h116.27V3.41h-163.7V145.59z"></path> <path d="M591.96,66.97c2.41-3.32,3.61-7.42,3.61-12.3c0-3.12-0.55-5.92-1.66-8.39c-1.11-2.47-2.64-4.72-4.59-6.74
							c-2.08-2.08-4.62-3.69-7.61-4.83c-2.99-1.14-6.54-1.71-10.64-1.71h-30.65v69.79h14.64V75.85h11.52l16.2,26.94h16.4l-17.47-28.6
							C586.14,72.7,589.55,70.29,591.96,66.97z M578.15,61.9c-1.92,1.63-4.74,2.44-8.44,2.44h-14.64V45.3h14.84
							c3.51,0,6.25,0.78,8.2,2.34c1.95,1.56,2.93,3.94,2.93,7.12C581.03,57.89,580.07,60.27,578.15,61.9z"></path> <path d="M568,0c-37.5,0-67.9,30.4-67.9,67.9c0,37.5,30.4,67.9,67.9,67.9s67.9-30.4,67.9-67.9C635.9,30.4,605.5,0,568,0z
							M568,125.35c-31.68,0-57.45-25.77-57.45-57.45c0-31.68,25.77-57.45,57.45-57.45s57.45,25.77,57.45,57.45
							C625.45,99.58,599.67,125.35,568,125.35z"></path></g></svg>