<svg width="93" height="39" viewBox="0 0 93 39" fill="none" xmlns="http://www.w3.org/2000/svg">
<path d="M0 1H16L5.5 23H0V1Z" fill="#000000"/>
<rect y="22" width="23" height="6" fill="#000000"/>
<rect y="29" width="23" height="2" fill="#000000"/>
<path d="M30.8182 7.72727V31H24.5V7.72727H30.8182ZM40.1761 21.1818V31H33.9034V13.5455H39.858V16.8636H40.0398C40.4186 15.7576 41.0852 14.8902 42.0398 14.2614C43.0019 13.6326 44.1231 13.3182 45.4034 13.3182C46.6383 13.3182 47.7102 13.6023 48.6193 14.1705C49.536 14.7311 50.2443 15.5038 50.7443 16.4886C51.2519 17.4735 51.5019 18.5985 51.4943 19.8636V31H45.2216V21.1818C45.2292 20.3182 45.0095 19.6402 44.5625 19.1477C44.1231 18.6553 43.5095 18.4091 42.7216 18.4091C42.2064 18.4091 41.7557 18.5227 41.3693 18.75C40.9905 18.9697 40.6989 19.2879 40.4943 19.7045C40.2898 20.1136 40.1837 20.6061 40.1761 21.1818ZM60.2273 26.8636L60.2727 19.4091H61.0909L65.3182 13.5455H72.3636L65.2727 22.6818H63.5L60.2273 26.8636ZM54.5909 31V7.72727H60.8636V31H54.5909ZM65.3636 31L61.3636 24.0909L65.4545 19.6364L72.5455 31H65.3636ZM78.2841 37.5455C77.5644 37.5455 76.8788 37.4886 76.2273 37.375C75.5758 37.2689 75.0038 37.1212 74.5114 36.9318L75.875 32.4773C76.3902 32.6591 76.8598 32.7765 77.2841 32.8295C77.7159 32.8826 78.0833 32.8523 78.3864 32.7386C78.697 32.625 78.9205 32.4091 79.0568 32.0909L79.1932 31.7727L73.0568 13.5455H79.6023L82.4205 25.6364H82.6023L85.4659 13.5455H92.0568L85.6932 32.4545C85.375 33.4167 84.9129 34.2803 84.3068 35.0455C83.7083 35.8182 82.9205 36.428 81.9432 36.875C80.9659 37.322 79.7462 37.5455 78.2841 37.5455Z" fill="#000000"/>
</svg>
