<?xml version="1.0" standalone="no"?>
<!DOCTYPE svg PUBLIC "-//W3C//DTD SVG 20010904//EN"
 "http://www.w3.org/TR/2001/REC-SVG-20010904/DTD/svg10.dtd">
<svg version="1.0" xmlns="http://www.w3.org/2000/svg"
 width="309.000000pt" height="309.000000pt" viewBox="0 0 309.000000 309.000000"
 preserveAspectRatio="xMidYMid meet">
<metadata>
Created by potrace 1.14, written by Peter Selinger 2001-2017
</metadata>
<g transform="translate(0.000000,309.000000) scale(0.100000,-0.100000)"
fill="#000000" stroke="none">
<path d="M220 3070 c-63 -23 -112 -60 -157 -119 -67 -86 -64 -13 -61 -1427 l3
-1279 28 -56 c32 -66 99 -132 165 -162 l47 -22 1300 0 1300 0 56 28 c66 32
132 99 162 165 l22 47 0 1300 0 1300 -22 47 c-30 66 -96 133 -162 165 l-56 28
-1285 2 c-1257 2 -1286 2 -1340 -17z m642 -1207 l4 -948 22 -75 c63 -204 187
-336 373 -395 114 -36 271 -50 402 -36 187 21 290 64 398 171 74 73 116 149
151 275 23 80 23 82 26 1018 l3 937 164 0 165 0 0 -912 c0 -755 -3 -929 -15
-1004 -62 -385 -296 -647 -661 -739 -273 -70 -610 -52 -844 45 -298 123 -486
406 -520 781 -11 117 -14 1812 -3 1822 3 4 80 7 169 7 l163 0 3 -947z m658
850 c23 -166 25 -169 38 -68 7 50 15 105 18 123 l6 32 279 0 279 0 0 -715 0
-715 -595 0 -595 0 0 715 0 715 279 0 279 0 12 -87z"/>
<path d="M1000 2085 l0 -675 170 0 170 0 1 268 1 267 34 -250 c18 -137 33
-258 34 -267 0 -16 13 -18 134 -18 l134 0 5 28 c3 15 18 133 33 262 l29 235 5
-260 5 -260 168 -3 167 -2 0 675 0 675 -235 0 c-129 0 -235 -2 -235 -4 0 -2
-16 -112 -35 -246 -19 -134 -35 -247 -35 -253 0 -42 -13 30 -39 223 -17 124
-34 237 -37 253 l-6 27 -234 0 -234 0 0 -675z m455 633 c2 -13 23 -158 46
-323 22 -165 42 -301 43 -302 2 -2 22 133 45 300 24 166 45 312 48 325 l5 22
217 -2 216 -3 0 -650 0 -650 -150 0 -150 0 -5 415 -5 415 -52 -408 c-29 -224
-55 -412 -58 -417 -4 -6 -53 -10 -111 -10 -86 0 -106 3 -111 16 -3 8 -29 201
-58 427 l-53 412 -3 -425 -4 -425 -147 -3 -148 -3 0 656 0 655 215 0 c214 0
215 0 220 -22z"/>
</g>
</svg>
