<svg id="visual" viewBox="0 0 900 600" width="900" height="600" xmlns="http://www.w3.org/2000/svg" xmlns:xlink="http://www.w3.org/1999/xlink" version="1.1"><rect x="0" y="0" width="900" height="600" fill="#001220"></rect><defs><linearGradient id="grad1_0" x1="33.3%" y1="0%" x2="100%" y2="100%"><stop offset="20%" stop-color="#fbae3c" stop-opacity="1"></stop><stop offset="80%" stop-color="#fbae3c" stop-opacity="1"></stop></linearGradient></defs><defs><linearGradient id="grad1_1" x1="33.3%" y1="0%" x2="100%" y2="100%"><stop offset="20%" stop-color="#fbae3c" stop-opacity="1"></stop><stop offset="80%" stop-color="#cc5867" stop-opacity="1"></stop></linearGradient></defs><defs><linearGradient id="grad1_2" x1="33.3%" y1="0%" x2="100%" y2="100%"><stop offset="20%" stop-color="#593762" stop-opacity="1"></stop><stop offset="80%" stop-color="#cc5867" stop-opacity="1"></stop></linearGradient></defs><defs><linearGradient id="grad1_3" x1="33.3%" y1="0%" x2="100%" y2="100%"><stop offset="20%" stop-color="#593762" stop-opacity="1"></stop><stop offset="80%" stop-color="#001220" stop-opacity="1"></stop></linearGradient></defs><defs><linearGradient id="grad2_0" x1="0%" y1="0%" x2="66.7%" y2="100%"><stop offset="20%" stop-color="#fbae3c" stop-opacity="1"></stop><stop offset="80%" stop-color="#fbae3c" stop-opacity="1"></stop></linearGradient></defs><defs><linearGradient id="grad2_1" x1="0%" y1="0%" x2="66.7%" y2="100%"><stop offset="20%" stop-color="#cc5867" stop-opacity="1"></stop><stop offset="80%" stop-color="#fbae3c" stop-opacity="1"></stop></linearGradient></defs><defs><linearGradient id="grad2_2" x1="0%" y1="0%" x2="66.7%" y2="100%"><stop offset="20%" stop-color="#cc5867" stop-opacity="1"></stop><stop offset="80%" stop-color="#593762" stop-opacity="1"></stop></linearGradient></defs><defs><linearGradient id="grad2_3" x1="0%" y1="0%" x2="66.7%" y2="100%"><stop offset="20%" stop-color="#001220" stop-opacity="1"></stop><stop offset="80%" stop-color="#593762" stop-opacity="1"></stop></linearGradient></defs><g transform="translate(900, 0)"><path d="M0 378.6C-47.9 358.8 -95.8 339.1 -128.6 310.4C-161.3 281.7 -179 244.1 -218.5 218.5C-258 192.9 -319.4 179.3 -349.8 144.9C-380.1 110.5 -379.3 55.2 -378.6 0L0 0Z" fill="#232745"></path><path d="M0 283.9C-35.9 269.1 -71.9 254.3 -96.4 232.8C-121 211.3 -134.2 183.1 -163.9 163.9C-193.5 144.7 -239.6 134.5 -262.3 108.7C-285.1 82.8 -284.5 41.4 -283.9 0L0 0Z" fill="#96446e"></path><path d="M0 189.3C-24 179.4 -47.9 169.6 -64.3 155.2C-80.7 140.9 -89.5 122.1 -109.2 109.2C-129 96.4 -159.7 89.6 -174.9 72.4C-190 55.2 -189.7 27.6 -189.3 0L0 0Z" fill="#f17c53"></path><path d="M0 94.6C-12 89.7 -24 84.8 -32.1 77.6C-40.3 70.4 -44.7 61 -54.6 54.6C-64.5 48.2 -79.9 44.8 -87.4 36.2C-95 27.6 -94.8 13.8 -94.6 0L0 0Z" fill="#fbae3c"></path></g><g transform="translate(0, 600)"><path d="M0 -378.6C44.6 -364 89.1 -349.4 138.5 -334.4C187.9 -319.5 242.1 -304.1 267.7 -267.7C293.3 -231.3 290.2 -174 304 -125.9C317.7 -77.8 348.1 -38.9 378.6 0L0 0Z" fill="#232745"></path><path d="M0 -283.9C33.4 -273 66.9 -262.1 103.9 -250.8C140.9 -239.6 181.6 -228 200.8 -200.8C220 -173.5 217.7 -130.5 228 -94.4C238.3 -58.3 261.1 -29.2 283.9 0L0 0Z" fill="#96446e"></path><path d="M0 -189.3C22.3 -182 44.6 -174.7 69.3 -167.2C94 -159.7 121.1 -152 133.8 -133.8C146.6 -115.7 145.1 -87 152 -63C158.8 -38.9 174.1 -19.4 189.3 0L0 0Z" fill="#f17c53"></path><path d="M0 -94.6C11.1 -91 22.3 -87.4 34.6 -83.6C47 -79.9 60.5 -76 66.9 -66.9C73.3 -57.8 72.6 -43.5 76 -31.5C79.4 -19.4 87 -9.7 94.6 0L0 0Z" fill="#fbae3c"></path></g></svg>