<svg id="visual" viewBox="0 0 900 600" width="900" height="600" xmlns="http://www.w3.org/2000/svg" xmlns:xlink="http://www.w3.org/1999/xlink" version="1.1"><rect x="0" y="0" width="900" height="600" fill="#001220"></rect><defs><linearGradient id="grad1_0" x1="33.3%" y1="0%" x2="100%" y2="100%"><stop offset="20%" stop-color="#001220" stop-opacity="1"></stop><stop offset="80%" stop-color="#001220" stop-opacity="1"></stop></linearGradient></defs><defs><linearGradient id="grad2_0" x1="0%" y1="0%" x2="66.7%" y2="100%"><stop offset="20%" stop-color="#001220" stop-opacity="1"></stop><stop offset="80%" stop-color="#001220" stop-opacity="1"></stop></linearGradient></defs><g transform="translate(900, 0)"><path d="M0 486.7C-58.4 459 -116.8 431.3 -166.5 401.9C-216.1 372.4 -257.1 341.2 -307.6 307.6C-358.1 274 -418.2 237.9 -449.7 186.3C-481.2 134.6 -484 67.3 -486.7 0L0 0Z" fill="#FBAE3C"></path></g><g transform="translate(0, 600)"><path d="M0 -486.7C62.8 -464.9 125.5 -443 168.4 -406.5C211.2 -370.1 234.2 -319 284.3 -284.3C334.3 -249.5 411.4 -230.9 449.7 -186.3C488 -141.6 487.4 -70.8 486.7 0L0 0Z" fill="#FBAE3C"></path></g></svg>