<?xml version="1.0" standalone="no"?>
<!DOCTYPE svg PUBLIC "-//W3C//DTD SVG 20010904//EN"
 "http://www.w3.org/TR/2001/REC-SVG-20010904/DTD/svg10.dtd">
<svg version="1.0" xmlns="http://www.w3.org/2000/svg"
 width="1024.000000pt" height="1024.000000pt" viewBox="0 0 1024.000000 1024.000000"
 preserveAspectRatio="xMidYMid meet">
<metadata>
Created by potrace 1.16, written by Peter Selinger 2001-2019
</metadata>
<g transform="translate(0.000000,1024.000000) scale(0.100000,-0.100000)"
fill="#000000" stroke="none">
<path d="M4910 9810 c-605 -25 -1084 -134 -1635 -372 -744 -321 -1353 -790
-1867 -1438 -368 -464 -702 -1150 -853 -1748 -169 -669 -169 -1595 0 -2264
129 -511 392 -1089 703 -1543 295 -431 756 -893 1188 -1189 402 -275 901 -513
1374 -655 620 -186 1418 -225 2140 -105 267 44 465 98 745 201 850 314 1543
813 2103 1514 332 415 616 950 798 1505 156 476 222 1002 202 1602 -22 679
-163 1236 -473 1867 -239 488 -506 864 -885 1245 -434 437 -911 761 -1485
1008 -598 258 -1038 351 -1780 376 -55 1 -179 0 -275 -4z m436 -1461 c104 -18
268 -78 362 -132 297 -170 496 -428 589 -763 l27 -99 4 -587 3 -588 122 0
c202 0 305 -38 422 -155 41 -40 82 -93 97 -125 61 -123 58 -44 58 -1573 0
-1241 -2 -1406 -16 -1461 -43 -167 -178 -309 -354 -370 -40 -14 -210 -16
-1540 -16 -1330 0 -1500 2 -1540 16 -176 61 -311 203 -354 370 -14 55 -16 220
-16 1461 0 1529 -3 1450 58 1573 15 32 56 85 97 125 117 117 220 155 422 155
l122 0 3 588 4 587 27 100 c94 337 291 592 591 763 88 51 255 113 351 131 70
12 389 13 461 0z m-3001 -3073 c164 -81 321 -295 411 -559 31 -91 80 -303 89
-383 6 -58 5 -62 -19 -78 -29 -18 -46 -14 -46 11 0 23 -73 174 -114 235 -95
143 -206 246 -413 384 -198 131 -253 203 -245 321 3 29 49 82 87 100 20 9 55
12 103 10 58 -3 86 -11 147 -41z m5782 33 c71 -27 112 -99 93 -167 -25 -95
-91 -161 -286 -287 -221 -143 -397 -348 -470 -549 -12 -33 -25 -61 -30 -63 -5
-1 -20 6 -32 16 l-24 18 16 104 c28 174 78 345 148 499 66 146 205 315 308
378 94 56 208 77 277 51z m-6067 -1669 c210 -63 414 -182 639 -373 l33 -28
-26 -39 c-14 -22 -28 -40 -29 -40 -2 0 -36 16 -76 35 -128 63 -228 86 -387 92
-166 7 -252 -4 -449 -54 -221 -56 -334 -47 -405 33 -27 31 -30 41 -30 102 0
58 4 75 29 113 37 60 102 112 187 150 92 42 137 49 284 44 103 -3 144 -10 230
-35z m6511 30 c117 -22 246 -103 300 -189 25 -38 29 -55 29 -113 0 -61 -3 -71
-30 -102 -71 -80 -178 -89 -400 -34 -202 51 -287 61 -448 55 -160 -6 -254 -28
-380 -87 -46 -22 -85 -40 -87 -40 -1 0 -14 18 -28 39 l-26 40 57 49 c236 203
519 349 740 381 83 12 211 13 273 1z"/>
<path d="M4982 7859 c-30 -5 -87 -23 -128 -39 -202 -81 -358 -254 -426 -475
-21 -68 -22 -89 -26 -617 l-3 -548 721 0 721 0 -3 548 c-4 524 -5 550 -25 615
-43 136 -93 221 -184 314 -166 170 -400 243 -647 202z"/>
<path d="M5011 5014 c-112 -24 -185 -84 -211 -173 -18 -59 -24 -282 -11 -353
15 -77 44 -145 76 -178 13 -14 31 -41 39 -61 17 -40 24 -119 12 -137 -11 -19
-74 -48 -154 -71 -104 -31 -191 -109 -217 -195 -17 -56 -12 -91 19 -124 151
-168 906 -174 1079 -10 39 37 39 38 35 98 -8 106 -90 192 -221 231 -92 28
-143 54 -157 80 -16 28 4 119 35 161 53 71 66 95 81 143 35 116 26 382 -16
464 -34 68 -91 104 -198 127 -81 17 -108 16 -191 -2z"/>
</g>
</svg>
