<svg id="visual" viewBox="0 0 900 600" width="900" height="600" xmlns="http://www.w3.org/2000/svg" xmlns:xlink="http://www.w3.org/1999/xlink" version="1.1"><rect x="0" y="0" width="900" height="600" fill="#001220"></rect><defs><linearGradient id="grad1_0" x1="33.3%" y1="0%" x2="100%" y2="100%"><stop offset="20%" stop-color="#fbae3c" stop-opacity="1"></stop><stop offset="80%" stop-color="#fbae3c" stop-opacity="1"></stop></linearGradient></defs><defs><linearGradient id="grad1_1" x1="33.3%" y1="0%" x2="100%" y2="100%"><stop offset="20%" stop-color="#fbae3c" stop-opacity="1"></stop><stop offset="80%" stop-color="#96446e" stop-opacity="1"></stop></linearGradient></defs><defs><linearGradient id="grad1_2" x1="33.3%" y1="0%" x2="100%" y2="100%"><stop offset="20%" stop-color="#001220" stop-opacity="1"></stop><stop offset="80%" stop-color="#96446e" stop-opacity="1"></stop></linearGradient></defs><defs><linearGradient id="grad2_0" x1="0%" y1="0%" x2="66.7%" y2="100%"><stop offset="20%" stop-color="#fbae3c" stop-opacity="1"></stop><stop offset="80%" stop-color="#fbae3c" stop-opacity="1"></stop></linearGradient></defs><defs><linearGradient id="grad2_1" x1="0%" y1="0%" x2="66.7%" y2="100%"><stop offset="20%" stop-color="#96446e" stop-opacity="1"></stop><stop offset="80%" stop-color="#fbae3c" stop-opacity="1"></stop></linearGradient></defs><defs><linearGradient id="grad2_2" x1="0%" y1="0%" x2="66.7%" y2="100%"><stop offset="20%" stop-color="#96446e" stop-opacity="1"></stop><stop offset="80%" stop-color="#001220" stop-opacity="1"></stop></linearGradient></defs><g transform="translate(900, 0)"><path d="M0 270.4C-34.3 266.2 -68.7 261.9 -103.5 249.8C-138.3 237.8 -173.5 217.9 -188.1 188.1C-202.7 158.3 -196.7 118.7 -206.9 85.7C-217.2 52.7 -243.8 26.4 -270.4 0L0 0Z" fill="#3d3056"></path><path d="M0 180.3C-22.9 177.4 -45.8 174.6 -69 166.6C-92.2 158.5 -115.7 145.2 -125.4 125.4C-135.1 105.6 -131.1 79.1 -138 57.1C-144.8 35.2 -162.5 17.6 -180.3 0L0 0Z" fill="#e1685e"></path><path d="M0 90.1C-11.4 88.7 -22.9 87.3 -34.5 83.3C-46.1 79.3 -57.8 72.6 -62.7 62.7C-67.6 52.8 -65.6 39.6 -69 28.6C-72.4 17.6 -81.3 8.8 -90.1 0L0 0Z" fill="#fbae3c"></path></g><g transform="translate(0, 600)"><path d="M0 -270.4C30 -249.5 60 -228.6 88.4 -213.4C116.8 -198.2 143.4 -188.7 172.5 -172.5C201.6 -156.3 233.1 -133.4 249.8 -103.5C266.5 -73.6 268.5 -36.8 270.4 0L0 0Z" fill="#3d3056"></path><path d="M0 -180.3C20 -166.3 40 -152.4 58.9 -142.3C77.8 -132.2 95.6 -125.8 115 -115C134.4 -104.2 155.4 -88.9 166.6 -69C177.7 -49.1 179 -24.5 180.3 0L0 0Z" fill="#e1685e"></path><path d="M0 -90.1C10 -83.2 20 -76.2 29.5 -71.1C38.9 -66.1 47.8 -62.9 57.5 -57.5C67.2 -52.1 77.7 -44.5 83.3 -34.5C88.8 -24.5 89.5 -12.3 90.1 0L0 0Z" fill="#fbae3c"></path></g></svg>