<svg id="visual" viewBox="0 0 900 600" width="900" height="600" xmlns="http://www.w3.org/2000/svg" xmlns:xlink="http://www.w3.org/1999/xlink" version="1.1"><rect x="0" y="0" width="900" height="600" fill="#001220"></rect><defs><linearGradient id="grad1_0" x1="33.3%" y1="0%" x2="100%" y2="100%"><stop offset="20%" stop-color="#fbae3c" stop-opacity="1"></stop><stop offset="80%" stop-color="#fbae3c" stop-opacity="1"></stop></linearGradient></defs><defs><linearGradient id="grad1_1" x1="33.3%" y1="0%" x2="100%" y2="100%"><stop offset="20%" stop-color="#fbae3c" stop-opacity="1"></stop><stop offset="80%" stop-color="#96446e" stop-opacity="1"></stop></linearGradient></defs><defs><linearGradient id="grad1_2" x1="33.3%" y1="0%" x2="100%" y2="100%"><stop offset="20%" stop-color="#001220" stop-opacity="1"></stop><stop offset="80%" stop-color="#96446e" stop-opacity="1"></stop></linearGradient></defs><defs><linearGradient id="grad2_0" x1="0%" y1="0%" x2="66.7%" y2="100%"><stop offset="20%" stop-color="#fbae3c" stop-opacity="1"></stop><stop offset="80%" stop-color="#fbae3c" stop-opacity="1"></stop></linearGradient></defs><defs><linearGradient id="grad2_1" x1="0%" y1="0%" x2="66.7%" y2="100%"><stop offset="20%" stop-color="#96446e" stop-opacity="1"></stop><stop offset="80%" stop-color="#fbae3c" stop-opacity="1"></stop></linearGradient></defs><defs><linearGradient id="grad2_2" x1="0%" y1="0%" x2="66.7%" y2="100%"><stop offset="20%" stop-color="#96446e" stop-opacity="1"></stop><stop offset="80%" stop-color="#001220" stop-opacity="1"></stop></linearGradient></defs><g transform="translate(900, 0)"><path d="M0 378.6C-38.3 345.1 -76.5 311.7 -123.2 297.5C-169.9 283.3 -225 288.3 -265.9 265.9C-306.7 243.5 -333.4 193.8 -349.8 144.9C-366.2 96 -372.4 48 -378.6 0L0 0Z" fill="#3d3056"></path><path d="M0 252.4C-25.5 230.1 -51 207.8 -82.1 198.3C-113.3 188.8 -150 192.2 -177.2 177.2C-204.5 162.3 -222.2 129.2 -233.2 96.6C-244.1 64 -248.3 32 -252.4 0L0 0Z" fill="#e1685e"></path><path d="M0 126.2C-12.8 115 -25.5 103.9 -41.1 99.2C-56.6 94.4 -75 96.1 -88.6 88.6C-102.2 81.2 -111.1 64.6 -116.6 48.3C-122.1 32 -124.1 16 -126.2 0L0 0Z" fill="#fbae3c"></path></g><g transform="translate(0, 600)"><path d="M0 -378.6C38.3 -342.6 76.7 -306.6 119.8 -289.2C162.9 -271.7 210.7 -272.7 252.4 -252.4C294.2 -232.1 329.8 -190.5 349.8 -144.9C369.8 -99.2 374.2 -49.6 378.6 0L0 0Z" fill="#3d3056"></path><path d="M0 -252.4C25.6 -228.4 51.1 -204.4 79.9 -192.8C108.6 -181.1 140.5 -181.8 168.3 -168.3C196.1 -154.8 219.8 -127 233.2 -96.6C246.5 -66.2 249.5 -33.1 252.4 0L0 0Z" fill="#e1685e"></path><path d="M0 -126.2C12.8 -114.2 25.6 -102.2 39.9 -96.4C54.3 -90.6 70.2 -90.9 84.1 -84.1C98.1 -77.4 109.9 -63.5 116.6 -48.3C123.3 -33.1 124.7 -16.5 126.2 0L0 0Z" fill="#fbae3c"></path></g></svg>