<svg width="900" height="600" viewBox="0 0 900 600" fill="none" xmlns="http://www.w3.org/2000/svg">
<path d="M900 0H0V600H900V0Z" fill="#972FFF"/>
<path d="M900 486.7C841.6 459 783.2 431.3 733.5 401.9C683.9 372.4 642.9 341.2 592.4 307.6C541.9 274 481.8 237.9 450.3 186.3C418.8 134.6 416 67.3 413.3 0H900V486.7Z" fill="white"/>
<path d="M0 113.3C62.8 135.1 125.5 157 168.4 193.5C211.2 229.9 234.2 281 284.3 315.7C334.3 350.5 411.4 369.1 449.7 413.7C488 458.4 487.4 529.2 486.7 600H0V113.3Z" fill="white"/>
</svg>
