<svg width="70" height="89" viewBox="0 0 70 89" fill="none" xmlns="http://www.w3.org/2000/svg">
<rect x="2" y="2" width="66" height="85" rx="17" stroke="white" stroke-width="4"/>
<path d="M21.3571 19.2143H24.0357V21.8929H21.3571V19.2143ZM18.6786 19.2143H21.3571V21.8929H18.6786V19.2143ZM18.6786 21.8929H21.3571V24.5714H18.6786V21.8929ZM21.3571 21.8929H24.0357V24.5714H21.3571V21.8929ZM24.0357 21.8929H26.7143V24.5714H24.0357V21.8929ZM24.0357 19.2143H26.7143V21.8929H24.0357V19.2143ZM26.7143 19.2143H29.3929V21.8929H26.7143V19.2143ZM29.3929 19.2143H32.0714V21.8929H29.3929V19.2143ZM29.3929 21.8929H32.0714V24.5714H29.3929V21.8929ZM26.7143 21.8929H29.3929V24.5714H26.7143V21.8929ZM29.3929 24.5714H32.0714V27.25H29.3929V24.5714ZM32.0714 21.8929H34.75V24.5714H32.0714V21.8929ZM32.0714 24.5714H34.75V27.25H32.0714V24.5714ZM32.0714 37.9643H34.75V40.6429H32.0714V37.9643ZM32.0714 40.6429H34.75V43.3214H32.0714V40.6429ZM29.3929 40.6429H32.0714V43.3214H29.3929V40.6429ZM29.3929 37.9643H32.0714V40.6429H29.3929V37.9643ZM26.7143 40.6429H29.3929V43.3214H26.7143V40.6429ZM29.3929 43.3214H32.0714V46H29.3929V43.3214ZM26.7143 43.3214H29.3929V46H26.7143V43.3214ZM24.0357 43.3214H26.7143V46H24.0357V43.3214ZM24.0357 40.6429H26.7143V43.3214H24.0357V40.6429ZM21.3571 43.3214H24.0357V46H21.3571V43.3214ZM18.6786 43.3214H21.3571V46H18.6786V43.3214ZM18.6786 40.6429H21.3571V43.3214H18.6786V40.6429ZM21.3571 40.6429H24.0357V43.3214H21.3571V40.6429ZM21.3571 37.9643H24.0357V40.6429H21.3571V37.9643ZM18.6786 37.9643H21.3571V40.6429H18.6786V37.9643ZM16 40.6429H18.6786V43.3214H16V40.6429ZM16 37.9643H18.6786V40.6429H16V37.9643ZM16 35.2857H18.6786V37.9643H16V35.2857ZM16 32.6071H18.6786V35.2857H16V32.6071ZM16 29.9286H18.6786V32.6071H16V29.9286ZM16 27.25H18.6786V29.9286H16V27.25ZM16 24.5714H18.6786V27.25H16V24.5714ZM18.6786 24.5714H21.3571V27.25H18.6786V24.5714ZM16 21.8929H18.6786V24.5714H16V21.8929ZM21.3571 24.5714H24.0357V27.25H21.3571V24.5714ZM18.6786 27.25H21.3571V29.9286H18.6786V27.25ZM18.6786 29.9286H21.3571V32.6071H18.6786V29.9286ZM18.6786 32.6071H21.3571V35.2857H18.6786V32.6071ZM18.6786 35.2857H21.3571V37.9643H18.6786V35.2857ZM45.4713 43.3214H48.1498V46H45.4713V43.3214ZM45.4713 40.6429H48.1498V43.3214H45.4713V40.6429ZM45.4713 37.9643H48.1498V40.6429H45.4713V37.9643ZM42.7927 40.6429H45.4713V43.3214H42.7927V40.6429ZM42.7927 37.9643H45.4713V40.6429H42.7927V37.9643ZM42.7927 35.2857H45.4713V37.9643H42.7927V35.2857ZM40.1141 37.9643H42.7927V40.6429H40.1141V37.9643ZM40.1141 35.2857H42.7927V37.9643H40.1141V35.2857ZM48.1498 37.9643H50.8284V40.6429H48.1498V37.9643ZM48.1498 40.6429H50.8284V43.3214H48.1498V40.6429ZM48.1498 35.2857H50.8284V37.9643H48.1498V35.2857ZM50.8284 35.2857H53.507V37.9643H50.8284V35.2857ZM50.8284 37.9643H53.507V40.6429H50.8284V37.9643ZM53.507 35.2857H56.1855V37.9643H53.507V35.2857ZM37.4355 35.2857H40.1141V37.9643H37.4355V35.2857ZM50.8284 19.2143H53.507V21.8929H50.8284V19.2143ZM53.507 19.2143H56.1855V21.8929H53.507V19.2143ZM53.507 21.8929H56.1855V24.5714H53.507V21.8929ZM53.507 24.5714H56.1855V27.25H53.507V24.5714ZM53.507 27.25H56.1855V29.9286H53.507V27.25ZM53.507 29.9286H56.1855V32.6071H53.507V29.9286ZM50.8284 29.9286H53.507V32.6071H50.8284V29.9286ZM50.8284 32.6071H53.507V35.2857H50.8284V32.6071ZM50.8284 27.25H53.507V29.9286H50.8284V27.25ZM50.8284 24.5714H53.507V27.25H50.8284V24.5714ZM50.8284 21.8929H53.507V24.5714H50.8284V21.8929ZM53.507 32.6071H56.1855V35.2857H53.507V32.6071ZM40.1141 32.6071H42.7927V35.2857H40.1141V32.6071ZM37.4355 32.6071H40.1141V35.2857H37.4355V32.6071ZM37.4355 29.9286H40.1141V32.6071H37.4355V29.9286ZM40.1141 29.9286H42.7927V32.6071H40.1141V29.9286ZM40.1141 27.25H42.7927V29.9286H40.1141V27.25ZM37.4355 27.25H40.1141V29.9286H37.4355V27.25ZM37.4355 24.5714H40.1141V27.25H37.4355V24.5714ZM40.1141 24.5714H42.7927V27.25H40.1141V24.5714ZM37.4355 19.2143H40.1141V21.8929H37.4355V19.2143ZM40.1141 19.2143H42.7927V21.8929H40.1141V19.2143ZM40.1141 21.8929H42.7927V24.5714H40.1141V21.8929ZM37.4355 21.8929H40.1141V24.5714H37.4355V21.8929Z" fill="white"/>
<rect x="14" y="67" width="45" height="3" fill="white"/>
<rect x="14" y="58" width="45" height="3" fill="white"/>
</svg>
